<?xml version="1.0" encoding="utf-8"?>
<!-- Generator: Adobe Illustrator 16.0.0, SVG Export Plug-In . SVG Version: 6.00 Build 0)  -->
<!DOCTYPE svg PUBLIC "-//W3C//DTD SVG 1.1//EN" "http://www.w3.org/Graphics/SVG/1.1/DTD/svg11.dtd">
<svg version="1.1" id="Calque_1" xmlns="http://www.w3.org/2000/svg" xmlns:xlink="http://www.w3.org/1999/xlink" x="0px" y="0px"
	 width="145px" height="145px" viewBox="225.188 348.443 145 145" enable-background="new 225.188 348.443 145 145"
	 xml:space="preserve">
<path fill="#C1C6C1" d="M369.688,420.943c0,39.763-32.234,72-72,72c-39.766,0-72-32.234-72-72c0-39.766,32.234-72,72-72
	C337.453,348.943,369.688,381.177,369.688,420.943L369.688,420.943z"/>
<g transform="translate(-117.93 78.489)">
	<path fill="#FFFFFF" d="M367.606,324.902h24l12.001-15.36h24l12.001,15.36h23.999v48.001h-96V324.902z"/>
	<path fill="#FFFFFF" stroke="#C1C6C1" stroke-width="1.8189" stroke-linecap="square" d="M444.728,344.339
		c0,16.079-13.035,29.112-29.112,29.112c-16.079,0-29.112-13.032-29.112-29.112c0-16.077,13.033-29.111,29.112-29.111
		C431.693,315.228,444.728,328.262,444.728,344.339z"/>
	<path fill="#C1C6C1" d="M435.693,344.336c0,11.088-8.987,20.076-20.075,20.076s-20.076-8.988-20.076-20.076
		c0-11.087,8.988-20.076,20.076-20.076S435.693,333.249,435.693,344.336z"/>
</g>
</svg>
