<?xml version="1.0" encoding="UTF-8" standalone="no"?>
<!-- Generator: Adobe Illustrator 16.0.0, SVG Export Plug-In . SVG Version: 6.00 Build 0)  -->

<svg
   xmlns:dc="http://purl.org/dc/elements/1.1/"
   xmlns:cc="http://creativecommons.org/ns#"
   xmlns:rdf="http://www.w3.org/1999/02/22-rdf-syntax-ns#"
   xmlns:svg="http://www.w3.org/2000/svg"
   xmlns="http://www.w3.org/2000/svg"
   xmlns:sodipodi="http://sodipodi.sourceforge.net/DTD/sodipodi-0.dtd"
   xmlns:inkscape="http://www.inkscape.org/namespaces/inkscape"
   version="1.1"
   id="Calque_1"
   x="0px"
   y="0px"
   width="539.53003"
   height="202.39"
   viewBox="0 0 539.53002 202.38999"
   enable-background="new 0 0 500.001 202.391"
   xml:space="preserve"
   sodipodi:docname="logo_blue.svg"
   inkscape:version="0.92.5 (2060ec1f9f, 2020-04-08)"><metadata
   id="metadata21"><rdf:RDF><cc:Work
       rdf:about=""><dc:format>image/svg+xml</dc:format><dc:type
         rdf:resource="http://purl.org/dc/dcmitype/StillImage" /><dc:title></dc:title></cc:Work></rdf:RDF></metadata><defs
   id="defs19" /><sodipodi:namedview
   pagecolor="#ffffff"
   bordercolor="#666666"
   borderopacity="1"
   objecttolerance="10"
   gridtolerance="10"
   guidetolerance="10"
   inkscape:pageopacity="0"
   inkscape:pageshadow="2"
   inkscape:window-width="1920"
   inkscape:window-height="1016"
   id="namedview17"
   showgrid="false"
   fit-margin-top="0"
   fit-margin-left="0"
   fit-margin-right="0"
   fit-margin-bottom="0"
   inkscape:zoom="0.89999819"
   inkscape:cx="249.99995"
   inkscape:cy="101.1945"
   inkscape:window-x="0"
   inkscape:window-y="27"
   inkscape:window-maximized="1"
   inkscape:current-layer="Calque_1" />
<g
   id="g14"
   transform="translate(-5.5729997e-4)">
	<g
   id="g8">
		<path
   d="m 185.106,0 c 3.714,0 5.23,5.056 3.375,11.234 l -31.859,105.95 c -1.859,6.17 -4.896,6.17 -6.755,0 L 118.007,11.234 C 116.152,5.056 117.669,0 121.382,0 Z"
   id="path2"
   inkscape:connector-curvature="0"
   style="clip-rule:evenodd;fill:#518fed;fill-rule:evenodd" />
		<path
   d="m 67.891,0 c 3.714,0 5.233,5.056 3.375,11.234 l -31.86,105.95 c -1.859,6.17 -4.892,6.17 -6.754,0 L 0.794,11.234 C -1.063,5.056 0.452,0 4.166,0 Z"
   id="path4"
   inkscape:connector-curvature="0"
   style="clip-rule:evenodd;fill:#518fed;fill-rule:evenodd" />
		<path
   d="m 62.741,166.963 c -3.713,0 -5.23,-5.055 -3.375,-11.231 l 31.86,-105.95 c 1.858,-6.17 4.899,-6.17 6.758,0 l 31.856,105.95 c 1.858,6.177 0.338,11.231 -3.375,11.231 z"
   id="path6"
   inkscape:connector-curvature="0"
   style="clip-rule:evenodd;fill:#518fed;fill-rule:evenodd" />
	</g>
	<rect
   x="176.338"
   y="55.147999"
   width="323.66299"
   height="147.242"
   id="rect10"
   style="fill:none" />
	<text
   transform="translate(176.335,167.8486)"
   font-size="150.2676"
   id="text12"
   style="font-size:150.26759338px;font-family:Heebo-Regular;fill:#518fed">eAlly</text>

</g>
</svg>