<?xml version="1.0" encoding="utf-8"?>
<!-- Generator: Adobe Illustrator 16.0.0, SVG Export Plug-In . SVG Version: 6.00 Build 0)  -->
<!DOCTYPE svg PUBLIC "-//W3C//DTD SVG 1.1//EN" "http://www.w3.org/Graphics/SVG/1.1/DTD/svg11.dtd">
<svg version="1.1" id="Calque_1" xmlns="http://www.w3.org/2000/svg" xmlns:xlink="http://www.w3.org/1999/xlink" x="0px" y="0px"
	 width="250px" height="220.531px" viewBox="0 0 250 220.531" enable-background="new 0 0 250 220.531" xml:space="preserve">
<g>
	<path fill-rule="evenodd" clip-rule="evenodd" fill="#518FED" d="M244.496,0c4.905,0,6.908,6.678,4.458,14.839l-42.081,139.942
		c-2.456,8.149-6.467,8.149-8.923,0L155.868,14.839C153.419,6.678,155.422,0,160.326,0H244.496z"/>
	<path fill-rule="evenodd" clip-rule="evenodd" fill="#518FED" d="M89.673,0c4.905,0,6.912,6.678,4.458,14.839L52.048,154.781
		c-2.456,8.149-6.461,8.149-8.921,0L1.049,14.839C-1.405,6.678,0.597,0,5.502,0H89.673z"/>
	<path fill-rule="evenodd" clip-rule="evenodd" fill="#518FED" d="M82.871,220.531c-4.904,0-6.908-6.677-4.458-14.835
		l42.083-139.943c2.454-8.149,6.471-8.149,8.926,0l42.077,139.943c2.454,8.158,0.446,14.835-4.458,14.835H82.871z"/>
</g>
</svg>
