<?xml version="1.0" encoding="utf-8"?>
<!-- Generator: Adobe Illustrator 16.0.0, SVG Export Plug-In . SVG Version: 6.00 Build 0)  -->
<!DOCTYPE svg PUBLIC "-//W3C//DTD SVG 1.1//EN" "http://www.w3.org/Graphics/SVG/1.1/DTD/svg11.dtd">
<svg version="1.1" id="Calque_1" xmlns="http://www.w3.org/2000/svg" xmlns:xlink="http://www.w3.org/1999/xlink" x="0px" y="0px"
	 width="392.791px" height="135.344px" viewBox="0 0 392.791 135.344" enable-background="new 0 0 392.791 135.344"
	 xml:space="preserve">
<g>
	<g>
		<path fill-rule="evenodd" clip-rule="evenodd" fill="#518FED" d="M134.161,0c2.417,0,3.405,3.29,2.197,7.312l-20.735,68.959
			c-1.21,4.015-3.187,4.015-4.396,0L90.491,7.312C89.282,3.291,90.271,0,92.688,0H134.161z"/>
		<path fill-rule="evenodd" clip-rule="evenodd" fill="#518FED" d="M57.872,0c2.417,0,3.404,3.29,2.196,7.312L39.332,76.271
			c-1.21,4.015-3.186,4.015-4.396,0L14.2,7.312C12.991,3.291,13.98,0,16.396,0H57.872z"/>
		<path fill-rule="evenodd" clip-rule="evenodd" fill="#518FED" d="M54.521,108.669c-2.417,0-3.405-3.289-2.196-7.311L73.06,32.4
			c1.21-4.016,3.188-4.016,4.398,0l20.735,68.959c1.208,4.021,0.221,7.311-2.197,7.311H54.521z"/>
		<path fill="#518FED" d="M149.564,31.162l-21.071,70.081c-1.229,4.086-0.222,7.427,2.233,7.427h19.584V29.388
			C150.046,29.861,149.791,30.423,149.564,31.162z"/>
		<path fill="#518FED" d="M21.818,101.243L0.747,31.164c-0.227-0.74-0.481-1.3-0.747-1.775v79.281h19.585
			C22.041,108.669,23.048,105.329,21.818,101.243z"/>
	</g>
	<text transform="matrix(1 0 0 1 157.6396 108.6694)" fill="#518FED" font-family="'Aclonica-Regular'" font-size="90">eAlly</text>
</g>
</svg>
