<?xml version="1.0" encoding="utf-8"?>
<!-- Generator: Adobe Illustrator 16.0.0, SVG Export Plug-In . SVG Version: 6.00 Build 0)  -->
<!DOCTYPE svg PUBLIC "-//W3C//DTD SVG 1.1//EN" "http://www.w3.org/Graphics/SVG/1.1/DTD/svg11.dtd">
<svg version="1.1" id="Calque_1" xmlns="http://www.w3.org/2000/svg" xmlns:xlink="http://www.w3.org/1999/xlink" x="0px" y="0px"
	 width="512px" height="512px" viewBox="0 0 512 512" enable-background="new 0 0 512 512" xml:space="preserve">
<rect x="3.5" y="45.219" fill-rule="evenodd" clip-rule="evenodd" fill="none" width="499.003" height="364.245"/>
<g>
	<path fill-rule="evenodd" clip-rule="evenodd" fill="#518FED" d="M457.775,70.198c8.266,0,11.645,11.252,7.514,25.001
		l-70.91,235.812c-4.137,13.73-10.895,13.73-15.031,0L308.441,95.199c-4.135-13.749-0.756-25.001,7.51-25.001H457.775z"/>
	<path fill-rule="evenodd" clip-rule="evenodd" fill="#518FED" d="M196.896,70.198c8.265,0,11.644,11.252,7.511,25.001
		l-70.909,235.812c-4.137,13.73-10.894,13.73-15.031,0L47.557,95.199c-4.133-13.749-0.753-25.001,7.512-25.001H196.896z"/>
	<path fill-rule="evenodd" clip-rule="evenodd" fill="#518FED" d="M185.438,441.804c-8.266,0-11.645-11.25-7.512-25l70.904-235.813
		c4.138-13.732,10.903-13.732,15.042,0l70.904,235.813c4.133,13.75,0.754,25-7.512,25H185.438z"/>
	<path fill="#518FED" d="M510.447,176.756l-72.057,239.647c-4.203,13.973-0.76,25.4,7.639,25.4H513v-271.11
		C512.094,172.308,511.221,174.232,510.447,176.756z"/>
	<path fill="#518FED" d="M73.609,416.403L1.552,176.764c-0.772-2.532-1.646-4.447-2.552-6.071v271.11h66.971
		C74.369,441.804,77.812,430.376,73.609,416.403z"/>
</g>
</svg>
