<?xml version="1.0" encoding="utf-8"?>
<!-- Generator: Adobe Illustrator 16.0.0, SVG Export Plug-In . SVG Version: 6.00 Build 0)  -->
<!DOCTYPE svg PUBLIC "-//W3C//DTD SVG 1.1//EN" "http://www.w3.org/Graphics/SVG/1.1/DTD/svg11.dtd">
<svg version="1.1" id="Calque_1" xmlns="http://www.w3.org/2000/svg" xmlns:xlink="http://www.w3.org/1999/xlink" x="0px" y="0px"
	 width="98.82px" height="40px" viewBox="0 0 98.82 40" enable-background="new 0 0 98.82 40" xml:space="preserve">
<g>
	<g>
		<path fill-rule="evenodd" clip-rule="evenodd" fill="#518FED" d="M36.584,0c0.734,0,1.034,0.999,0.668,2.22l-6.297,20.94
			c-0.368,1.219-0.968,1.219-1.335,0L23.323,2.22C22.956,0.999,23.256,0,23.99,0H36.584z"/>
		<path fill-rule="evenodd" clip-rule="evenodd" fill="#518FED" d="M13.418,0c0.734,0,1.034,0.999,0.667,2.22L7.788,23.16
			c-0.367,1.219-0.967,1.219-1.335,0L0.157,2.22C-0.21,0.999,0.09,0,0.823,0H13.418z"/>
		<path fill-rule="evenodd" clip-rule="evenodd" fill="#518FED" d="M12.4,32.998c-0.734,0-1.034-0.999-0.667-2.22l6.297-20.94
			c0.367-1.219,0.968-1.219,1.335,0l6.297,20.94c0.367,1.221,0.066,2.22-0.667,2.22H12.4z"/>
	</g>
	<g>
		<path fill="#518FED" d="M43.406,33.463c-1.459,0-2.729-0.326-3.807-0.979c-1.078-0.652-1.914-1.549-2.508-2.69
			c-0.596-1.141-0.893-2.446-0.893-3.915v-0.624c0-1.702,0.326-3.154,0.979-4.358c0.654-1.204,1.504-2.122,2.553-2.755
			c1.049-0.633,2.158-0.95,3.328-0.95c1.508,0,2.738,0.336,3.691,1.008c0.951,0.672,1.652,1.586,2.102,2.741
			c0.449,1.155,0.674,2.463,0.674,3.923v1.204H37.809v-2.175h9.006v-0.203c-0.039-0.696-0.18-1.375-0.42-2.038
			c-0.242-0.662-0.629-1.208-1.16-1.638s-1.258-0.646-2.176-0.646c-0.813,0-1.529,0.229-2.152,0.689
			c-0.625,0.459-1.113,1.126-1.465,2.001c-0.354,0.875-0.529,1.941-0.529,3.198v0.624c0,0.996,0.184,1.902,0.551,2.719
			s0.898,1.47,1.596,1.958c0.695,0.488,1.527,0.732,2.494,0.732c0.947,0,1.748-0.193,2.406-0.58
			c0.658-0.386,1.232-0.904,1.727-1.552l1.639,1.276c-0.504,0.773-1.227,1.472-2.168,2.095
			C46.213,33.151,44.963,33.463,43.406,33.463z"/>
		<path fill="#518FED" d="M53.92,33.173h-2.9l8.063-21.114h1.857l-0.045,1.856L53.92,33.173z M66.391,27.648H54.514v-2.277h11.877
			V27.648z M59.734,13.916l-0.027-1.856h1.84l8.078,21.114h-2.887L59.734,13.916z"/>
		<path fill="#518FED" d="M74.99,33.173h-2.713V10.899h2.713V33.173z"/>
		<path fill="#518FED" d="M82.211,33.173H79.5V10.899h2.711V33.173z"/>
		<path fill="#518FED" d="M91.783,29.679l0.695,2.828l-1.943,0.972l-5.756-15.995h2.957L91.783,29.679z M95.264,17.483h2.885
			l-6.293,18.112c-0.145,0.386-0.336,0.805-0.572,1.254c-0.238,0.449-0.537,0.877-0.9,1.283c-0.361,0.406-0.805,0.737-1.326,0.993
			s-1.141,0.384-1.855,0.384c-0.146,0-0.32-0.014-0.523-0.043c-0.203-0.029-0.396-0.061-0.58-0.094s-0.324-0.065-0.42-0.094v-2.161
			c0.076,0.01,0.201,0.024,0.369,0.043c0.17,0.02,0.287,0.029,0.355,0.029c0.908,0,1.619-0.189,2.133-0.566
			c0.512-0.377,0.928-1.049,1.246-2.016l1.117-3.06L95.264,17.483z"/>
	</g>
</g>
</svg>
